<?xml version="1.0" encoding="UTF-8"?>
<svg width="136px" height="87px" viewBox="0 0 136 87" version="1.1" xmlns="http://www.w3.org/2000/svg" xmlns:xlink="http://www.w3.org/1999/xlink">
    <!-- Generator: Sketch 50.2 (55047) - http://www.bohemiancoding.com/sketch -->
    <title>Fill 1</title>
    <desc>Created with Sketch.</desc>
    <defs></defs>
    <g id="Symbols" stroke="none" stroke-width="1" fill="none" fill-rule="evenodd">
        <g id="DOC-SITE/Nav/Logo-L" transform="translate(-58.000000, -32.000000)" fill="#1C1B1A">
            <g id="Group-3" transform="translate(57.965892, 31.980887)">
                <path d="M63.4284522,49.113797 L72.5359758,49.113797 L72.5359758,39.6764366 L63.4342067,44.3080148 L63.4284522,49.113797 Z M114.211025,8.7832059 L135.223538,27.1256366 L131.725594,27.1256366 L129.953473,27.1256366 L114.375551,13.8317229 L102.175774,27.1311295 L78.505734,5.89706857 L58.4850854,32.4924814 L62.1111976,32.4924814 C62.841756,32.4924814 63.4342067,33.0849321 63.4342067,33.8157521 L63.4342067,37.1240596 L72.5359758,32.4924814 L85.279028,32.4924814 L85.279028,49.8958842 L80.2571909,54.9174598 L87.6116882,65.734851 L73.3107392,65.734851 L67.3909404,57.028049 L63.4284522,57.028049 L63.4284522,65.734851 L50.6822612,65.734851 L50.6822612,42.8576222 L37.0564182,60.9578412 L46.1179059,81.4801766 L-0.000130783819,69.3994136 L9.79374631,49.1182436 L4.57050214,49.113797 L12.8559187,32.4741716 L8.96039182,32.4741716 L21.2519783,8.73298491 L33.8302429,32.4741716 L29.9349776,32.4741716 L34.8521877,42.6467987 L77.3925022,0.028798597 L80.0560454,2.42632757 L80.0714779,2.40880254 L100.548562,20.2866891 L114.211025,8.7832059 Z M92.3400465,73.1432313 C92.2566064,73.0077392 92.1205912,73.0077392 92.0374127,73.1432313 L90.7813649,75.1928753 C90.6979248,75.3286289 90.6979248,75.5509614 90.7813649,75.686715 L92.0374127,77.736359 C92.1205912,77.871851 92.2566064,77.871851 92.3400465,77.736359 L93.5958327,75.686715 C93.6792728,75.5509614 93.6792728,75.3286289 93.5958327,75.1928753 L92.3400465,73.1432313 Z M131.581208,73.4123844 C131.581208,73.2115004 131.411451,73.041743 131.210044,73.041743 L120.11016,73.041743 L120.11016,77.8378472 L131.210044,77.8378472 C131.411451,77.8378472 131.581208,77.6680898 131.581208,77.4666828 L131.581208,73.4123844 Z M135.223538,73.4123844 L135.223538,77.4666828 C135.223538,79.6798065 133.423168,81.4801766 131.210044,81.4801766 L120.11016,81.4801766 L120.11016,86.3170854 L116.46783,86.3170854 L116.46783,69.3994136 L131.210044,69.3994136 C133.423168,69.3994136 135.223538,71.1997837 135.223538,73.4123844 Z M110.62964,73.4123844 C110.62964,73.2115004 110.45936,73.041743 110.258214,73.041743 L99.5294946,73.041743 C99.3283491,73.041743 99.1580685,73.2115004 99.1580685,73.4123844 L99.1580685,77.4666828 C99.1580685,77.6680898 99.3283491,77.8378472 99.5294946,77.8378472 L110.258214,77.8378472 C110.45936,77.8378472 110.62964,77.6680898 110.62964,77.4666828 L110.62964,73.4123844 Z M114.271708,73.4123844 L114.271708,77.4666828 C114.271708,79.6798065 112.471338,81.4801766 110.258214,81.4801766 L99.5294946,81.4801766 C97.3163708,81.4801766 95.5157392,79.6798065 95.5157392,77.4666828 L95.5157392,73.4123844 C95.5157392,71.1997837 97.3163708,69.3994136 99.5294946,69.3994136 L110.258214,69.3994136 C112.471338,69.3994136 114.271708,71.1997837 114.271708,73.4123844 Z M50.6822612,73.4123844 L50.6822612,77.4666828 C50.6822612,79.6798065 52.4826312,81.4801766 54.695755,81.4801766 L67.9093674,81.4801766 L67.9093674,77.8378472 L54.695755,77.8378472 C54.4946095,77.8378472 54.324329,77.6680898 54.324329,77.4666828 L54.324329,73.4123844 C54.324329,73.2115004 54.4946095,73.041743 54.695755,73.041743 L67.9093674,73.041743 L67.9093674,69.3994136 L54.695755,69.3994136 C52.4826312,69.3994136 50.6822612,71.1997837 50.6822612,73.4123844 Z M85.2188675,73.4123844 C85.2188675,73.2115004 85.0488485,73.041743 84.8474414,73.041743 L81.1907259,73.041743 L77.7756988,73.041743 L74.1189832,73.041743 C73.9175761,73.041743 73.7475571,73.2115004 73.7475571,73.4123844 L73.7475571,77.4666828 C73.7475571,77.6680898 73.9175761,77.8378472 74.1189832,77.8378472 L84.8474414,77.8378472 C85.0488485,77.8378472 85.2188675,77.6680898 85.2188675,77.4666828 L85.2188675,73.4123844 Z M88.8611969,73.4123844 L88.8611969,77.4666828 C88.8611969,79.6798065 87.0605652,81.4801766 84.8474414,81.4801766 L74.1189832,81.4801766 C71.9058594,81.4801766 70.1052278,79.6798065 70.1052278,77.4666828 L70.1052278,73.4123844 C70.1052278,71.1997837 71.9058594,69.3994136 74.1189832,69.3994136 L84.8474414,69.3994136 C87.0605652,69.3994136 88.8611969,71.1997837 88.8611969,73.4123844 Z M122.480747,65.7168029 L132.683977,65.7168029 C134.086503,65.7168029 135.223538,64.5795068 135.223538,63.1769811 L135.223538,32.4741716 L122.480747,32.4741716 L122.480747,65.7168029 Z M103.20949,39.6058133 L103.20949,45.5295356 L117.294645,45.5295356 L117.294645,52.6614389 L103.20949,52.6614389 L103.20949,58.5848996 L117.294645,58.5848996 L117.294645,65.7168029 L93.0690355,65.7168029 C91.6319829,65.7168029 90.466699,64.551519 90.466699,63.1142048 L90.466699,32.4741716 L117.294645,32.4741716 L117.294645,39.6058133 L103.20949,39.6058133 Z" id="Fill-1"></path>
            </g>
        </g>
    </g>
</svg>