<svg width="144" height="144" viewBox="0 0 144 144" fill="none" xmlns="http://www.w3.org/2000/svg">
  <style>
    path {
      fill: #1C1C1A;
    }
    @media (prefers-color-scheme: dark) {
      path {
        fill: white;
      }
    }
  </style>
<path d="M141.78 60.3116C141.487 57.8475 141.128 54.9765 140.566 52.1506C139.711 47.7875 138.339 43.5601 136.496 39.5813C135.619 37.705 134.427 35.2183 132.965 32.822C131.526 30.4709 129.885 28.2554 128.625 26.6051C126.129 23.3498 123.251 20.3205 120.08 17.5851C117.764 15.5957 115.313 13.742 113.2 12.1595C109.894 9.69537 106.184 7.50253 102.226 5.62618L101.822 5.44533C101.057 5.08362 100.315 4.72192 99.5504 4.38282C97.9089 3.6368 96.7846 4.15675 96.2674 4.51846C95.7502 4.88016 94.8733 5.78443 94.9857 7.57035L95.1431 10.2379C95.1881 10.9613 95.2105 11.7074 95.278 12.4308C95.3904 14.0585 96.3124 15.3018 97.774 15.867C98.3586 16.0931 98.9433 16.3191 99.5279 16.5678C102.968 18.0824 105.194 19.7779 106.724 22.0838C108.005 24.0054 108.41 26.0174 107.938 28.2102C107.511 30.2448 106.454 32.2342 104.632 34.4722C103.935 35.3313 103.103 36.0999 102.226 36.9364C101.867 37.2755 101.484 37.6372 101.147 37.9989L98.0438 41.0508C96.4248 42.6558 94.7833 44.2609 93.1643 45.866C91.7027 47.3354 90.2411 48.8048 88.8019 50.2969C87.2504 51.8794 85.6763 53.4618 84.1248 55.0217C82.8655 56.2876 81.5613 57.531 80.2796 58.797C79.2677 59.7917 78.2558 60.7864 77.2439 61.7811C76.2321 62.7984 75.2202 63.8157 74.2083 64.833C73.4887 65.5564 72.7467 66.3024 71.9372 67.1162C71.0602 66.2798 70.2057 65.4207 69.3512 64.5617L66.6529 61.8037C65.551 60.6733 64.4267 59.543 63.3024 58.4127C60.4691 55.5868 57.6583 52.761 54.8026 49.9352C53.7682 48.8953 52.7113 47.878 51.6545 46.8607C50.5302 45.7756 49.4283 44.7131 48.3265 43.6279C45.6281 40.9603 42.9298 38.2702 40.2764 35.5574C37.9828 33.2063 36.6561 30.9908 36.0714 28.6171C35.6217 26.7182 35.6892 25.0679 36.3188 23.5985C37.2407 21.4056 38.9047 19.6423 41.4457 18.1729C42.5925 17.5173 43.8292 16.9295 45.1109 16.3417L46.2802 15.7992C47.6744 15.1436 48.4839 13.968 48.5963 12.476L48.6638 11.5039C48.7537 10.1927 48.8662 8.85893 48.9561 7.54774C49.0685 5.89746 48.3715 5.0158 47.7643 4.56367C47.1572 4.11154 46.1228 3.70462 44.5938 4.29239L44.3014 4.40542C41.2433 5.73921 38.1851 7.34429 34.9471 9.31106C31.844 11.21 28.8083 13.335 25.9751 15.6635C22.1074 18.8511 18.5321 22.4455 15.4065 26.3791C12.7531 29.7249 10.347 33.5002 8.30078 37.6146C7.06403 40.0787 5.98468 42.7689 4.95031 45.8434C3.82599 49.2344 3.06145 52.8288 2.56675 56.8754C2.25195 59.6334 1.95962 62.5497 2.0046 65.4885V66.1441C2.0046 66.6867 2.0046 67.2293 2.0046 67.7718C2.02708 68.563 2.07205 69.3769 2.13951 70.1681C2.22946 71.208 2.29692 72.2479 2.43184 73.2652C2.56675 74.373 3.08394 75.2546 3.89345 75.7746C4.65799 76.2719 5.6249 76.3849 6.59181 76.0911C8.50315 75.4807 10.6618 73.8982 10.9317 71.2532C11.1116 69.3995 11.3364 67.5684 11.5613 65.7146L11.8986 62.6853C12.011 61.6906 12.101 60.6733 12.2809 59.6786C12.4158 58.9326 12.5957 58.1866 12.7756 57.4406C12.933 56.8528 13.0679 56.2424 13.2028 55.6547C13.7874 52.874 14.7319 50.1839 16.126 47.4032C18.1498 43.4019 20.9381 40.5308 24.8058 38.6093L27.5491 41.3221C30.18 43.9218 32.8334 46.5216 35.4868 49.1213L40.0515 53.5749C42.1203 55.5868 44.189 57.5988 46.2353 59.6334C47.8318 61.2159 49.4283 62.7984 51.0249 64.3808C52.5764 65.9181 54.128 67.4779 55.6795 69.0152C57.2311 70.5524 58.7826 72.0671 60.3567 73.5817L62.8752 76.0232C61.9982 76.9049 61.1212 77.7865 60.2443 78.6682L56.3541 82.5792C54.8026 84.139 53.251 85.7215 51.677 87.2813C50.6426 88.3212 49.5857 89.3385 48.5514 90.3558C47.3596 91.5314 46.1678 92.6843 44.976 93.8825C43.5594 95.3067 42.1427 96.7535 40.7261 98.1777C39.5343 99.3985 38.3425 100.597 37.1508 101.817C35.4868 103.49 33.8228 105.163 32.1588 106.813C30.2924 108.667 28.4486 110.521 26.6047 112.397C24.4685 114.568 22.3323 116.76 20.2185 118.953C18.712 120.513 17.2279 122.073 15.7662 123.678C15.0017 124.514 14.2821 125.351 13.72 126.368C12.3933 128.787 11.1565 131.229 9.85233 133.783C9.49255 134.484 9.22272 135.207 8.95288 135.953L8.79548 136.36C8.48067 137.197 8.54813 138.463 9.44758 139.299C10.2571 140.068 11.3589 140.09 12.101 139.864C12.5957 139.729 13.0679 139.525 13.4502 139.277L14.8218 138.463C16.2385 137.604 17.6551 136.767 19.2291 135.727C20.6233 134.823 22.0624 133.874 23.3666 132.675C26.5372 129.759 29.6628 126.707 32.6985 123.746L33.4855 122.977C34.9246 121.576 36.3638 120.129 37.8029 118.705C38.8148 117.687 39.8266 116.693 40.8385 115.675C41.693 114.839 42.525 114.025 43.3795 113.211C44.2115 112.397 45.0435 111.606 45.8755 110.792C47.0448 109.639 48.2141 108.464 49.3833 107.311L71.3525 85.5632C71.5324 85.3824 71.7123 85.2015 71.9372 84.9981C73.6012 86.6257 75.2652 88.2534 76.9291 89.9037L105.847 118.365C108.995 121.463 112.12 124.582 115.291 127.679L116.258 128.629C117.629 129.985 119.046 131.387 120.575 132.653C123.408 134.981 126.422 136.88 129.008 138.44C129.772 138.892 130.604 139.322 131.391 139.706C131.773 139.887 132.246 140 132.718 140C133.392 140 134.067 139.797 134.584 139.277C134.966 138.892 135.551 138.056 135.259 136.586C135.169 136.157 135.034 135.727 134.787 135.253L134 133.625C133.19 131.952 132.38 130.279 131.526 128.629C130.604 126.82 129.637 125.102 128.153 123.588L115.088 110.204C112.615 107.673 110.119 105.118 107.623 102.609C106.319 101.297 105.015 100.009 103.71 98.6977C102.564 97.5674 101.417 96.4144 100.27 95.2615C99.5054 94.4928 98.7634 93.7242 97.9989 92.9556C97.0544 91.9835 96.11 91.0114 95.1656 90.0619C94.1537 89.0673 93.1193 88.0726 92.1074 87.0779C91.0281 86.038 89.9487 84.9981 88.8919 83.9582C87.0255 82.0818 85.1592 80.2055 83.2928 78.3291L81.1116 76.1137C81.6288 75.6163 82.146 75.0964 82.6407 74.599L85.5189 71.728C87.4303 69.8064 89.3416 67.9075 91.2529 66.0085C92.3548 64.9234 93.5016 63.8383 94.6259 62.7757C95.7502 61.7132 96.8521 60.6507 97.9539 59.5656C100.27 57.3049 102.564 55.0217 104.857 52.7384L108.477 49.1439C110.074 47.5615 111.671 45.979 113.267 44.4192L114.706 42.9949C116.145 41.5933 117.562 40.1691 119.159 38.6545C121.295 39.5813 123.184 41.0734 125.14 43.3114C126.871 45.3008 128.243 47.7423 129.21 50.5456C129.885 52.4897 130.582 54.5921 131.099 56.7172C131.504 58.4805 131.751 60.3116 131.998 62.2332L132.066 62.6627C132.38 65.0816 132.718 67.6814 132.898 70.2812C133.168 73.7852 135.259 75.345 136.968 76.0232C138.092 76.4528 139.194 76.4075 140.071 75.8424C140.948 75.2998 141.487 74.3729 141.577 73.2426L141.69 72.1349C141.802 70.982 141.915 69.8516 141.937 68.6987L141.96 67.5457C142.005 65.1947 142.072 62.7757 141.78 60.3116Z"/>

</svg>
